<svg aria-hidden="true" style="position: absolute; width: 0; height: 0; overflow: hidden;" version="1.1" xmlns="http://www.w3.org/2000/svg" xmlns:xlink="http://www.w3.org/1999/xlink">
<defs>
<symbol id="icon-spoon" viewBox="0 0 32 32">
<path d="M15.381 13.842c-0.838-1.011-1.346-2.321-1.346-3.749 0-0.001 0-0.002 0-0.004v0c0-4.944 5.924-9.881 11.848-9.881 3.272 0.001 5.923 2.653 5.924 5.925v0c0 5.925-4.936 11.85-9.886 11.85-0.001 0-0.002 0-0.003 0-1.428 0-2.738-0.508-3.758-1.354l0.010 0.008-14.588 14.591c-0.352 0.328-0.826 0.53-1.347 0.53-1.093 0-1.978-0.886-1.978-1.978 0-0.521 0.202-0.995 0.531-1.349l-0.001 0.001 14.595-14.591z"></path>
</symbol>
<symbol id="icon-chocolate" viewBox="0 0 32 32">
<path stroke-linejoin="round" stroke-linecap="round" stroke-miterlimit="4" stroke-width="2.6667" d="M22.31 23.887l-14.191-8.867M12.034 8.601l14.189 8.867M11.302 25.871l11.739-19.255M27.853 14.792c-3.041-1.899-4.235-3.384-2.278-6.593l-9.629-6.018-11.738 19.256 14.191 8.867 9.456-15.511z"></path>
</symbol>
<symbol id="icon-instagram" viewBox="0 0 32 32">
<path stroke-linejoin="round" stroke-linecap="round" stroke-miterlimit="4" stroke-width="2.6667" d="M22.673 2.667h-13.337c-3.683 0-6.669 2.986-6.669 6.669v0 13.337c0 3.683 2.986 6.669 6.669 6.669v0h13.337c3.683 0 6.669-2.986 6.669-6.669v0-13.337c0-3.683-2.986-6.669-6.669-6.669v0z"></path>
<path stroke-linejoin="round" stroke-linecap="round" stroke-miterlimit="4" stroke-width="2.6667" d="M21.34 15.164c0.037 0.235 0.058 0.506 0.058 0.782 0 2.947-2.389 5.335-5.335 5.335-2.671 0-4.883-1.962-5.274-4.523l-0.004-0.030c-0.037-0.235-0.058-0.506-0.058-0.782 0-2.947 2.389-5.335 5.335-5.335 2.671 0 4.883 1.962 5.274 4.523l0.004 0.030z"></path>
<path stroke-linejoin="round" stroke-linecap="round" stroke-miterlimit="4" stroke-width="2.6667" d="M21.34 15.164c0.037 0.235 0.058 0.506 0.058 0.782 0 2.947-2.389 5.335-5.335 5.335-2.671 0-4.883-1.962-5.274-4.523l-0.004-0.030c-0.037-0.235-0.058-0.506-0.058-0.782 0-2.947 2.389-5.335 5.335-5.335 2.671 0 4.883 1.962 5.274 4.523l0.004 0.030zM23.34 8.669h0.013M23.34 8.669h0.013"></path>
</symbol>
<symbol id="icon-twitter" viewBox="0 0 32 32">
<path stroke-linejoin="round" stroke-linecap="round" stroke-miterlimit="4" stroke-width="2.6667" d="M30.676 4.67c-1.2 0.857-2.591 1.552-4.085 2.013l-0.103 0.027c-1.101-1.261-2.712-2.054-4.509-2.054-3.3 0-5.975 2.675-5.975 5.975 0 0.028 0 0.056 0.001 0.084l-0-0.004v1.334c-0.109 0.003-0.238 0.005-0.367 0.005-2.331 0-4.532-0.561-6.473-1.556l0.080 0.037c-2.094-1.054-4.561-3.564-5.91-5.482 0 0-4.668 12.957 7.335 18.292-2.443 1.678-5.464 2.68-8.719 2.68-0.217 0-0.433-0.004-0.648-0.013l0.031 0.001c12.003 6.669 26.674 0 26.674-15.338 0-0.372-0.037-0.742-0.107-1.107 1.323-1.305 2.294-2.964 2.759-4.824l0.015-0.071z"></path>
</symbol>
<symbol id="icon-arrow" viewBox="0 0 32 32">
<path d="M17.494 18.95c-0.38 0.382-0.906 0.618-1.486 0.618s-1.107-0.236-1.486-0.618l-0-0-9.605-9.621c-0.384-0.414-0.932-0.673-1.539-0.673-1.158 0-2.097 0.939-2.097 2.097 0 0.603 0.255 1.147 0.662 1.529l0.001 0.001 9.621 9.623c1.138 1.136 2.708 1.838 4.443 1.838s3.306-0.702 4.443-1.838l9.623-9.623c0.376-0.379 0.609-0.901 0.609-1.477 0-1.158-0.939-2.097-2.097-2.097-0.582 0-1.109 0.237-1.489 0.62l-0 0-9.6 9.621z"></path>
</symbol>
<symbol id="icon-chocolate-into-wrapper" viewBox="0 0 32 32">
<path d="M13.604 0.456l8.308 8.318 0.088-0.088c0.17-0.167 0.404-0.27 0.661-0.27 0.25 0 0.477 0.097 0.646 0.256l-0-0 0.964 0.964c0.337 0.337 0.348 0.85 0.092 1.207l-0.004 0.008-0.158 0.212 6.799 6.799c0.607 0.607 0.607 1.578 0 2.185l-10.408 10.408c-0.607 0.607-1.578 0.607-2.185 0l-4.908-4.908c-0.171 0.215-0.434 0.352-0.728 0.352-0.257 0-0.49-0.105-0.658-0.274l-2.87-2.87c-0.167-0.17-0.27-0.404-0.27-0.661 0-0.25 0.097-0.477 0.256-0.646l-0 0 0.007-0.008 0.085-0.084-8.308-8.308c-0.607-0.607-0.607-1.578 0-2.185l10.408-10.408c0.607-0.607 1.578-0.607 2.185 0v0.001zM20.868 9.815l-1.938-1.937c-0.119-0.122-0.285-0.199-0.469-0.199s-0.35 0.076-0.469 0.198l-3.951 3.951c-0.122 0.121-0.198 0.289-0.198 0.475s0.076 0.353 0.198 0.475l1.93 1.93 0.673-0.673-1.727-1.727 3.543-3.554 1.732 1.737 0.677-0.677zM15.266 15.413l-1.936-1.936c-0.119-0.123-0.285-0.199-0.469-0.199s-0.35 0.076-0.469 0.198l-3.962 3.962c-0.265 0.254-0.265 0.673 0 0.938l1.934 1.934 0.68-0.68-1.733-1.726 3.554-3.543 1.726 1.725 0.675-0.674zM8.085 6.835l3.951 3.951c0.265 0.265 0.684 0.265 0.938-0.011l3.951-3.951c0.122-0.117 0.199-0.281 0.199-0.463 0-0 0-0 0-0v0h0.011c0-0.166-0.066-0.342-0.199-0.475l-3.951-3.951c-0.121-0.123-0.289-0.199-0.475-0.199s-0.354 0.076-0.475 0.198l-0 0-3.951 3.962c-0.265 0.254-0.265 0.673 0 0.938zM2.489 12.431l3.951 3.951c0.265 0.265 0.684 0.265 0.938 0l3.951-3.951c0.123-0.117 0.199-0.281 0.199-0.464 0-0.004-0-0.008-0-0.012v0.001h0.011c0-0.177-0.066-0.342-0.199-0.475l-3.951-3.951c-0.119-0.122-0.285-0.199-0.469-0.199s-0.35 0.076-0.469 0.198l-3.962 3.962c-0.265 0.254-0.265 0.673 0 0.938zM10.141 22.093l2.607 2.608 10.635-14.392-0.723-0.723-12.519 12.507z"></path>
<path d="M13.604 0.456l8.308 8.318 0.088-0.088c0.17-0.167 0.404-0.27 0.661-0.27 0.25 0 0.477 0.097 0.646 0.256l-0-0 0.964 0.964c0.337 0.337 0.348 0.85 0.092 1.207l-0.004 0.008-0.158 0.212 6.799 6.799c0.607 0.607 0.607 1.578 0 2.185l-10.408 10.408c-0.607 0.607-1.578 0.607-2.185 0l-4.908-4.908c-0.171 0.215-0.434 0.352-0.728 0.352-0.257 0-0.49-0.105-0.658-0.274l-2.87-2.87c-0.167-0.17-0.27-0.404-0.27-0.661 0-0.25 0.097-0.477 0.256-0.646l-0 0 0.007-0.008 0.085-0.084-8.308-8.308c-0.607-0.607-0.607-1.578 0-2.185l10.408-10.408c0.607-0.607 1.578-0.607 2.185 0v0.001zM20.868 9.815l-1.938-1.937c-0.119-0.122-0.285-0.199-0.469-0.199s-0.35 0.076-0.469 0.198l-3.951 3.951c-0.122 0.121-0.198 0.289-0.198 0.475s0.076 0.353 0.198 0.475l1.93 1.93 0.673-0.673-1.727-1.727 3.543-3.554 1.732 1.737 0.677-0.677zM15.266 15.413l-1.936-1.936c-0.119-0.123-0.285-0.199-0.469-0.199s-0.35 0.076-0.469 0.198l-3.962 3.962c-0.265 0.254-0.265 0.673 0 0.938l1.934 1.934 0.68-0.68-1.733-1.726 3.554-3.543 1.726 1.725 0.675-0.674zM8.085 6.835l3.951 3.951c0.265 0.265 0.684 0.265 0.938-0.011l3.951-3.951c0.122-0.117 0.199-0.281 0.199-0.463 0-0 0-0 0-0v0h0.011c0-0.166-0.066-0.342-0.199-0.475l-3.951-3.951c-0.121-0.123-0.289-0.199-0.475-0.199s-0.354 0.076-0.475 0.198l-0 0-3.951 3.962c-0.265 0.254-0.265 0.673 0 0.938zM2.489 12.431l3.951 3.951c0.265 0.265 0.684 0.265 0.938 0l3.951-3.951c0.123-0.117 0.199-0.281 0.199-0.464 0-0.004-0-0.008-0-0.012v0.001h0.011c0-0.177-0.066-0.342-0.199-0.475l-3.951-3.951c-0.119-0.122-0.285-0.199-0.469-0.199s-0.35 0.076-0.469 0.198l-3.962 3.962c-0.265 0.254-0.265 0.673 0 0.938zM10.141 22.093l2.607 2.608 10.635-14.392-0.723-0.723-12.519 12.507z"></path>
</symbol>
<symbol id="icon-coin" viewBox="0 0 32 32">
<path d="M16 0.762c-8.381 0-15.238 6.857-15.238 15.238s6.857 15.238 15.238 15.238c8.381 0 15.238-6.857 15.238-15.238s-6.857-15.238-15.238-15.238zM16 28.191c-6.705 0-12.191-5.486-12.191-12.19s5.486-12.191 12.191-12.191c6.705 0 12.19 5.486 12.19 12.191s-5.486 12.19-12.19 12.19z"></path>
<path d="M17.981 14.476h-3.962c-0.762 0-1.371-0.61-1.371-1.371s0.61-1.371 1.371-1.371h5.638c0.914 0 1.524-0.61 1.524-1.524s-0.61-1.524-1.524-1.524h-2.133v-1.371c0-0.914-0.61-1.524-1.524-1.524s-1.524 0.61-1.524 1.524v1.371h-0.457c-2.438 0-4.419 1.981-4.419 4.419s1.981 4.419 4.419 4.419h3.809c0.762 0 1.371 0.61 1.371 1.371s-0.61 1.371-1.371 1.371h-5.638c-0.914 0-1.524 0.61-1.524 1.524s0.61 1.524 1.524 1.524h2.286v1.371c0 0.914 0.61 1.524 1.524 1.524s1.524-0.61 1.524-1.524v-1.371h0.457c2.438 0 4.419-1.981 4.419-4.419s-1.981-4.419-4.419-4.419z"></path>
</symbol>
<symbol id="icon-mastercard" viewBox="0 0 32 32">
<path fill="#ed0006" style="fill: var(--color1, #ed0006)" d="M16.002 22.835c-1.581 1.367-3.656 2.199-5.926 2.199-0.003 0-0.007 0-0.010 0h0.001c-5.055 0-9.151-4.12-9.151-9.205s4.096-9.205 9.151-9.205c2.264 0 4.337 0.828 5.936 2.199 1.581-1.367 3.656-2.199 5.926-2.199 0.003 0 0.007 0 0.010 0h-0c5.055 0 9.151 4.12 9.151 9.205 0 5.084-4.096 9.205-9.151 9.205-0.003 0-0.006 0-0.009 0-2.27 0-4.345-0.833-5.938-2.209l0.012 0.010z"></path>
<path fill="#f9a000" style="fill: var(--color2, #f9a000)" d="M16.002 22.835c1.973-1.699 3.215-4.2 3.215-6.991 0-0.005 0-0.011 0-0.016v0.001c0-0.004 0-0.010 0-0.015 0-2.791-1.242-5.292-3.203-6.98l-0.012-0.010c1.581-1.367 3.656-2.199 5.926-2.199 0.003 0 0.007 0 0.010 0h-0c5.055 0 9.151 4.12 9.151 9.205 0 5.084-4.096 9.205-9.151 9.205-0.003 0-0.006 0-0.009 0-2.27 0-4.345-0.833-5.938-2.209l0.012 0.010z"></path>
<path fill="#ff5e00" style="fill: var(--color3, #ff5e00)" d="M16.002 22.835c1.973-1.699 3.215-4.2 3.215-6.991 0-0.005 0-0.011 0-0.016v0.001c0-0.004 0-0.010 0-0.015 0-2.791-1.242-5.292-3.203-6.98l-0.012-0.010c-1.973 1.699-3.215 4.2-3.215 6.991 0 0.005 0 0.011 0 0.016v-0.001c0 0.005 0 0.010 0 0.016 0 2.791 1.242 5.292 3.203 6.98l0.012 0.010z"></path>
</symbol>
<symbol id="icon-flag" viewBox="0 0 32 32">
<path fill="#ffd700" style="fill: var(--color4, #ffd700)" d="M31.835 4.060h-31.593v23.512h31.593v-23.512z"></path>
<path fill="#0057b7" style="fill: var(--color5, #0057b7)" d="M0.243 4.060h31.592v11.755h-31.593v-11.755z"></path>
</symbol>
<symbol id="icon-x" viewBox="0 0 32 32">
<path stroke-linejoin="round" stroke-linecap="round" stroke-miterlimit="4" stroke-width="2.2857" d="M24.012 8.004l-16.008 16.008M8.004 8.004l16.008 16.008"></path>
</symbol>
<symbol id="icon-burger" viewBox="0 0 47 32">
<path d="M0.892 0.115c-0.236 0.106-0.436 0.252-0.599 0.432l-0.001 0.001-0.291 0.324v2.483l0.332 0.332c0.636 0.636-1.54 0.583 23.293 0.56l22.106-0.019 0.407-0.225 0.407-0.227v-3.375l-0.806-0.401-22.269 0.003c-18.902 0.003-22.316 0.020-22.579 0.112zM1.068 13.575c-0.359 0.109-0.742 0.384-0.909 0.653-0.141 0.23-0.159 0.384-0.159 1.412 0 1.004 0.020 1.187 0.151 1.401 0.217 0.355 0.735 0.628 1.364 0.72 0.742 0.108 43.081 0.108 43.821 0 0.295-0.042 0.679-0.156 0.854-0.252l0.316-0.175v-3.408l-0.698-0.39-22.263-0.013c-12.246-0.007-22.361 0.016-22.477 0.051zM1.219 27.081c-0.394 0.078-0.73 0.283-0.972 0.571l-0.002 0.003-0.244 0.279v2.497l0.332 0.332c0.636 0.634-1.54 0.582 23.293 0.56 20.793-0.019 22.122-0.028 22.378-0.154 0.573-0.285 0.543-0.17 0.543-2.022v-1.673l-0.892-0.438-22.071-0.012c-12.748-0.007-22.193 0.016-22.364 0.057z"></path>
</symbol>
<symbol id="icon-play" viewBox="0 0 32 32">
<path d="M10.909 24v-15.273l14.545 7.636-14.545 7.636z"></path>
<path d="M16 31.273c-8.435 0-15.273-6.838-15.273-15.273s6.838-15.273 15.273-15.273c8.435 0 15.273 6.838 15.273 15.273s-6.838 15.273-15.273 15.273zM16 32c8.836 0 16-7.164 16-16s-7.164-16-16-16-16 7.164-16 16 7.164 16 16 16z"></path>
</symbol>
</defs>
</svg>
